<?xml version="1.0" standalone="no"?><!DOCTYPE svg PUBLIC "-//W3C//DTD SVG 1.1//EN" "http://www.w3.org/Graphics/SVG/1.1/DTD/svg11.dtd"><svg t="1628249454157" class="icon" viewBox="0 0 1026 1024" version="1.1" xmlns="http://www.w3.org/2000/svg" p-id="2023" xmlns:xlink="http://www.w3.org/1999/xlink" width="200.390625" height="200"><defs><style type="text/css"></style></defs><path d="M873.472 150.843l-0.158-0.157c-199.522-199.602-523.027-199.68-722.628-0.158-199.602 199.483-199.641 523.028-0.119 722.629a0.315 0.315 0 0 0 0.158 0.157c199.483 199.602 523.028 199.68 722.629 0.158s199.64-523.067 0.118-722.629z m-573.637 93.42c41.984 42.733 71.444 73.57 88.3 92.633l-37.69 31.744a1184.374 1184.374 0 0 0-83.457-95.823l32.847-28.554z m-3.23 432.404c10.753-15.084 16.148-33.044 16.148-53.839V454.302h-65.142v-38.794h106.614v209.998c16.502-15.793 36.982-36.942 61.4-63.527 1.458 12.564 4.845 28.2 10.24 46.828-43.44 43.087-76.287 77.352-98.54 102.834l-30.72-34.974z m485.18 60.298H383.842v-39.857h74.831V399.36h41.472v297.748h85.622v-393.61H413.46V263.64h359.7v39.857H628.853v162.068h124.928v39.857H628.854v191.685h152.93v39.857z" p-id="2024" fill="#ffffff"></path></svg>