<?xml version="1.0" standalone="no"?><!DOCTYPE svg PUBLIC "-//W3C//DTD SVG 1.1//EN" "http://www.w3.org/Graphics/SVG/1.1/DTD/svg11.dtd"><svg t="1628264416582" class="icon" viewBox="0 0 1074 1024" version="1.1" xmlns="http://www.w3.org/2000/svg" p-id="2011" xmlns:xlink="http://www.w3.org/1999/xlink" width="209.765625" height="200"><defs><style type="text/css"></style></defs><path d="M903.643237 150.431534H718.623684l83.319882-83.319881c0.109812-0.109812 0.233351-0.205898 0.329436-0.31571a39.120538 39.120538 0 0 0-55.317813-55.317813l-0.315709 0.329437-138.637695 138.637694h-129.537022l-138.637694-138.637694-0.315709-0.329437A39.120538 39.120538 0 0 0 284.138641 66.782217l0.329436 0.315709 83.319882 83.319882H170.387099A170.373372 170.373372 0 0 0 0 320.818633l1.37265 471.052451A170.400825 170.400825 0 0 0 171.759749 962.23073h44.954302a61.76927 61.76927 0 0 0 123.428728 0h409.118463a61.76927 61.76927 0 0 0 123.538539 0h30.884635a170.400825 170.400825 0 0 0 170.34592-170.359646V320.818633a170.387099 170.387099 0 0 0-170.387099-170.387099z m45.421003 629.634757a70.16989 70.16989 0 0 1-70.169891 70.183616H201.8757a70.183617 70.183617 0 0 1-70.183617-70.183616V330.180109a70.16989 70.16989 0 0 1 70.183617-70.16989h677.018649a70.156164 70.156164 0 0 1 70.169891 70.16989z" p-id="2012" fill="#ffffff"></path><path d="M650.416684 502.049671l226.487322 38.434212 16.814968-91.267528-228.903187-45.475909-14.399103 98.309225zM420.195752 404.193421l-228.916913 45.475909 16.828694 91.267528 226.487322-38.434213-14.399103-98.309224zM608.537119 685.12006c-16.787515 2.662942-54.755026-30.102224-64.583203-50.719434a1.907984 1.907984 0 0 0-1.743266-1.125573h-0.219624a1.949164 1.949164 0 0 0-1.756993 1.125573c-9.828177 20.589757-47.781962 53.368649-64.583203 50.719434C456.859246 682.210041 441.073765 649.26643 441.073765 649.26643l-43.458112 28.139334s10.981204 20.081876 19.930884 32.490636c12.889188 17.954268 38.832281 30.761096 69.373753 30.074771 22.26439-0.494154 43.924814-17.693464 51.899913-24.844973a3.912054 3.912054 0 0 1 2.621763-0.988308h1.37265a3.870874 3.870874 0 0 1 2.55313 0.974582c8.235903 7.261321 29.800241 24.364545 51.886186 24.858699 30.541472 0.686325 56.470839-12.13423 69.373754-30.088497 8.908501-12.353854 19.930884-32.490636 19.930884-32.490636L643.114184 649.26643s-15.812933 32.943611-34.577065 35.85363z" p-id="2013" fill="#ffffff"></path></svg>